<svg xmlns="http://www.w3.org/2000/svg" xmlns:xlink="http://www.w3.org/1999/xlink" width="120.373" height="28.216" viewBox="0 0 257.573 52.716">
  <defs>
    <clipPath id="clip-path">
      <rect id="Retângulo_3" data-name="Retângulo 3" width="257.573" height="52.716" fill="none"/>
    </clipPath>
  </defs>
  <g id="Arte_1" data-name="Arte 1" transform="translate(128.787 26.358)">
    <g id="Arte_1-2" data-name="Arte 1" transform="translate(-128.787 -26.358)" clip-path="url(#clip-path)">
      <path id="Caminho_8" data-name="Caminho 8" d="M28.409,17.969c-2.23,2.354-20.071,28.743-7.557,33.7a27.628,27.628,0,0,0,7.681,1.115c15.239,0,30.6-14.372,30.6-34.69a38.159,38.159,0,0,0-2.85-14.867C52.444-6.81,34.975,8.8,28.409,17.969" transform="translate(3.927 -0.005)" fill="#000"/>
      <path id="Caminho_9" data-name="Caminho 9" d="M18.089,49.556C7.93,44.105,0,32.583,0,18.088A38.159,38.159,0,0,1,2.85,3.22C6.319-6.072,21.806,6.813,29.239,15.981c0,0-17.964,23.168-11.274,33.327v.248" transform="translate(0 0.001)" fill="#000"/>
      <path id="Caminho_10" data-name="Caminho 10" d="M65.3,0H70.01A7.186,7.186,0,0,1,77.2,7.186V22.549a9.664,9.664,0,0,1,3.965-4.708,12.018,12.018,0,0,1,6.566-1.734q7.186,0,10.779,4.708t3.717,13.752q0,8.92-3.841,13.628t-11.15,4.584a13.009,13.009,0,0,1-6.442-1.363A14.743,14.743,0,0,1,76.7,47.575a1.858,1.858,0,0,0-1.487-.743,2.354,2.354,0,0,0-2.354,1.487h0a6.814,6.814,0,0,1-6.195,3.965h-.248V4.088a2.478,2.478,0,0,0-.248-1.115.867.867,0,0,0-.867-.5H62.7A2.6,2.6,0,0,1,65.3,0M84.629,48.938a4.832,4.832,0,0,0,3.593-1.363,8.549,8.549,0,0,0,1.858-4.46,49.309,49.309,0,0,0,.619-8.549,36.92,36.92,0,0,0-1.239-11.15,4.708,4.708,0,0,0-4.708-3.593A5.947,5.947,0,0,0,79.3,23.416a20.442,20.442,0,0,0-1.982,9.664v3.593q0,12.389,7.186,12.389" transform="translate(14.981 0)" fill="#000"/>
      <path id="Caminho_11" data-name="Caminho 11" d="M128.861,17.608q4.584-4.708,13.876-4.708t13.876,4.708q4.584,4.708,4.584,13.628,0,18.336-18.336,18.336-9.168,0-13.876-4.708T124.4,31.236q0-8.92,4.584-13.628m8.549,25.522a5.825,5.825,0,0,0,10.655,0q1.611-3.469,1.611-11.894t-1.611-12.142a5.746,5.746,0,0,0-10.655,0q-1.611,3.593-1.611,12.142t1.611,11.77" transform="translate(29.722 3.082)" fill="#000"/>
      <path id="Caminho_12" data-name="Caminho 12" d="M171.611,15.177h8.177a2.6,2.6,0,0,1-2.6,2.6h-5.451V43.053a6.938,6.938,0,0,0,.743,3.841,2.726,2.726,0,0,0,2.354.991,3.469,3.469,0,0,0,2.106-.867l.619-.619a2.726,2.726,0,0,1,3.221-.5,7.186,7.186,0,0,1-3.345,3.841,12.141,12.141,0,0,1-5.7,1.239A14,14,0,0,1,163.805,49a6.814,6.814,0,0,1-2.85-6.195V17.9H156a2.726,2.726,0,0,1,2.478-2.726l2.478-.5a5.2,5.2,0,0,0,2.726-2.354l.372-.619A8.425,8.425,0,0,1,171.611,7Z" transform="translate(37.273 1.673)" fill="#000"/>
      <path id="Caminho_13" data-name="Caminho 13" d="M182.761,17.608q4.584-4.708,13.876-4.708t13.876,4.708q4.584,4.708,4.584,13.628,0,18.336-18.336,18.336-9.168,0-13.876-4.708T178.3,31.236q0-8.92,4.584-13.628m8.549,25.522a5.825,5.825,0,0,0,10.655,0q1.611-3.469,1.611-11.894t-1.611-12.142a5.746,5.746,0,0,0-10.655,0q-1.611,3.593-1.611,12.142t1.611,11.77" transform="translate(42.601 3.082)" fill="#000"/>
      <path id="Caminho_14" data-name="Caminho 14" d="M127.082,15.007a6.938,6.938,0,0,1,2.23,5.327,4.584,4.584,0,0,1-1.487,3.717,5.2,5.2,0,0,1-3.469,1.239,5.575,5.575,0,0,1-3.1-.867,2.85,2.85,0,0,1-1.363-2.478,7.185,7.185,0,0,1,.372-1.735l.248-1.611c0-1.239-.5-1.858-1.611-1.858a4.708,4.708,0,0,0-3.841,2.478,18.337,18.337,0,0,0-2.6,6.071,32.089,32.089,0,0,0-.991,6.938V45.485c0,.991.372,1.611,1.115,1.611h5.7a2.85,2.85,0,0,1-2.85,2.85H97.472v-.5a2.106,2.106,0,0,1,2.354-2.106c.743,0,1.115-.5,1.115-1.611V17.981q0-1.611-1.115-1.611H97.1a2.726,2.726,0,0,1,2.726-2.726h10.531a1.363,1.363,0,0,1,1.363,1.611,14.5,14.5,0,0,0-.124,2.23v3.841q2.973-8.425,9.664-8.425a8.3,8.3,0,0,1,5.823,2.106" transform="translate(23.2 3.081)" fill="#000"/>
    </g>
  </g>
</svg>
