<?xml version="1.0" encoding="utf-8"?>
<!-- Generator: Adobe Illustrator 25.4.1, SVG Export Plug-In . SVG Version: 6.00 Build 0)  -->
<svg version="1.1" id="Camada_1" xmlns="http://www.w3.org/2000/svg" xmlns:xlink="http://www.w3.org/1999/xlink" x="0px" y="0px"
	 viewBox="0 0 250 250" style="enable-background:new 0 0 250 250;" xml:space="preserve">
<style type="text/css">
	.st0{display:none;}
	.st1{display:inline;}
	
		.st2{display:inline;clip-path:url(#SVGID_00000171718838630446983010000010443934334915031962_);fill:#FFFFFF;stroke:#FFFFFF;stroke-width:3;stroke-miterlimit:10;}
	.st3{fill:#FFFFFF;}
</style>
<g>
	<g class="st0">
		<defs>
			<path id="SVGID_1_" d="M189.1,0c-13.7,0-24.9,10-24.9,22.3v57.2c-4.5-4.5-10.7-7.3-17.6-7.3c-9,0-16.9,4.8-21.3,11.9
				c-4.4-7.1-12.3-11.9-21.3-11.9c-6.9,0-13.1,2.8-17.6,7.3V22.3C86.5,10,75.3,0,61.6,0S36.7,10,36.7,22.3v113.9v36.1
				c0,42.8,34.8,77.7,77.7,77.7h22.1c42.8,0,77.7-34.8,77.7-77.7v-36.1V22.3C214,10,202.9,0,189.1,0z"/>
		</defs>
		<use xlink:href="#SVGID_1_"  style="display:inline;overflow:visible;fill:#FFFFFF;"/>
		<clipPath id="SVGID_00000027601898869459197520000016732432211641419191_" class="st1">
			<use xlink:href="#SVGID_1_"  style="overflow:visible;"/>
		</clipPath>
		
			<rect x="36.7" style="display:inline;clip-path:url(#SVGID_00000027601898869459197520000016732432211641419191_);fill:#FFFFFF;stroke:#FFFFFF;stroke-width:3;stroke-miterlimit:10;" width="177.4" height="250"/>
		
			<use xlink:href="#SVGID_1_"  style="display:inline;overflow:visible;fill:none;stroke:#FFFFFF;stroke-width:3;stroke-miterlimit:10;"/>
	</g>
	<path class="st3" d="M189.1,0c-13.7,0-24.9,10-24.9,22.3v57.2c-4.5-4.5-10.7-7.3-17.6-7.3c-9,0-16.9,4.8-21.3,11.9
		c-4.4-7.1-12.3-11.9-21.3-11.9c-6.9,0-13.1,2.8-17.6,7.3V22.3C86.5,10,75.3,0,61.6,0S36.7,10,36.7,22.3v113.9v36.1
		c0,42.8,34.8,77.7,77.7,77.7h22.1c42.8,0,77.7-34.8,77.7-77.7v-36.1V22.3C214,10,202.9,0,189.1,0z M146.6,79.6
		c9.7,0,17.6,7.9,17.6,17.6v39c0,9.7-7.9,17.6-17.6,17.6s-17.6-7.9-17.6-17.6v-39C129,87.5,136.9,79.6,146.6,79.6z M104.1,79.6
		c9.7,0,17.6,7.9,17.6,17.6v39c0,1.7-0.2,3.4-0.7,5c-4.1-5.3-10.1-8.6-16.9-8.6H86.5V97.2C86.5,87.5,94.4,79.6,104.1,79.6z
		 M61.6,7.3c9.7,0,17.6,6.7,17.6,15v74.9v35.4H54.3v0C50.5,132.8,47,134,44,136V22.3C44,14.1,51.9,7.3,61.6,7.3z M206.7,172.3
		c0,38.8-31.6,70.3-70.3,70.3h-22.1c-38.8,0-70.3-31.6-70.3-70.3v-26.3c2.8-3.9,7-6.2,11.7-6.2h48.4c8.3,0,15,7.9,15,17.6
		s-6.7,17.6-15,17.6H77.5v7.3H86c16.4,0,28.2,10.2,28.2,24.3h7.3c0-10.3-5-19.1-13-24.8c10.2-2.3,17.8-12.4,17.8-24.4
		c0-2.8-0.4-5.5-1.2-8c0-0.1,0.1-0.2,0.1-0.2c4.4,7.1,12.3,11.9,21.3,11.9c13.7,0,24.9-11.2,24.9-24.9v-39V22.3
		c0-8.3,7.9-15,17.6-15s17.6,6.7,17.6,15v113.9V172.3z"/>
</g>
</svg>
